<svg width="25" height="25" viewBox="0 0 25 25" fill="none" xmlns="http://www.w3.org/2000/svg" _ngcontent-ng-c3902722799="" aria-hidden="true">
<path fill-rule="evenodd" clip-rule="evenodd" d="M0.198803 10.0909H17.759C17.7942 10.0909 17.8287 10.0808 17.8584 10.0618C17.8881 10.0428 17.9118 10.0157 17.9265 9.98371L19.4631 6.65864C19.4761 6.63051 19.4818 6.59956 19.4796 6.56865C19.4775 6.53774 19.4677 6.50786 19.451 6.48176C19.4343 6.45566 19.4113 6.43418 19.3841 6.41931C19.3569 6.40443 19.3264 6.39664 19.2955 6.39664L1.50785 6.3988C3.59845 2.58548 7.65025 0 12.306 0C19.1024 0 24.6119 5.50957 24.6119 12.306C24.6119 19.1024 19.1024 24.6119 12.306 24.6119C5.50957 24.6119 0 19.1024 0 12.306C0 11.5498 0.0682366 10.8094 0.198803 10.0909ZM7.75276 20.1818C7.75276 20.2471 7.77869 20.3097 7.82485 20.3558C7.87101 20.402 7.93361 20.4279 7.99888 20.4279H8.3173L12.2243 15.5055H15.2531C15.2884 15.5055 15.3228 15.4955 15.3525 15.4765C15.3822 15.4575 15.4059 15.4305 15.4207 15.3985L16.9589 12.0778C16.9719 12.0496 16.9777 12.0187 16.9756 11.9878C16.9735 11.9569 16.9636 11.927 16.947 11.9009C16.9303 11.8748 16.9073 11.8533 16.8801 11.8384C16.853 11.8235 16.8225 11.8157 16.7915 11.8156L7.75276 11.8137V20.1818Z" fill="#FF9800" _ngcontent-ng-c3902722799=""></path>
</svg>