<svg width="26" height="26" viewBox="0 0 26 26" fill="none" xmlns="http://www.w3.org/2000/svg" _ngcontent-ng-c916343373="" aria-hidden="true">
<path d="M16.8704 10.1583C16.8958 11.0161 16.6454 11.8595 16.1559 12.5645C15.6665 13.2694 14.9638 13.7988 14.1512 14.0749H14.1283V14.9455C14.1541 15.1266 14.1407 15.311 14.089 15.4864C14.0373 15.6618 13.9485 15.8241 13.8287 15.9622C13.7089 16.1003 13.5607 16.2111 13.3944 16.287C13.228 16.3629 13.0473 16.4022 12.8644 16.4022C12.6816 16.4022 12.5008 16.3629 12.3345 16.287C12.1681 16.2111 12.02 16.1003 11.9002 15.9622C11.7803 15.8241 11.6916 15.6618 11.6399 15.4864C11.5882 15.311 11.5748 15.1266 11.6006 14.9455V14.0545C11.6058 13.5259 11.777 13.0123 12.0899 12.5862C12.4028 12.1602 12.8416 11.8432 13.3444 11.68C13.6437 11.5776 13.9024 11.3821 14.0825 11.122C14.2626 10.862 14.3547 10.5511 14.3453 10.2349C14.3198 9.85265 14.1521 9.49383 13.8751 9.22916C13.5982 8.96449 13.2321 8.8132 12.8491 8.8051C12.5732 8.80756 12.3035 8.88733 12.0706 9.03536C11.8377 9.18339 11.651 9.39375 11.5317 9.64255C11.4761 9.81656 11.3837 9.97661 11.261 10.1119C11.1382 10.2472 10.9878 10.3545 10.82 10.4267C10.6522 10.4989 10.4708 10.5342 10.2882 10.5302C10.1055 10.5263 9.92587 10.4832 9.76131 10.4039C9.59675 10.3246 9.45113 10.2108 9.3343 10.0704C9.21746 9.92997 9.13212 9.76609 9.08405 9.58985C9.03598 9.4136 9.0263 9.22909 9.05565 9.04879C9.08501 8.86848 9.15272 8.69657 9.25422 8.54468C9.57841 7.86993 10.0851 7.29945 10.7168 6.89784C11.3486 6.49624 12.0801 6.27955 12.8287 6.27234H12.8542C13.8962 6.27498 14.8967 6.68124 15.6456 7.40582C16.3944 8.1304 16.8334 9.11693 16.8704 10.1583ZM12.8644 17.1898C12.5495 17.2214 12.2576 17.3689 12.0452 17.6036C11.8329 17.8383 11.7153 18.1435 11.7153 18.46C11.7153 18.7765 11.8329 19.0817 12.0452 19.3164C12.2576 19.5511 12.5495 19.6986 12.8644 19.7302C13.203 19.7302 13.5277 19.5957 13.7671 19.3563C14.0065 19.1169 14.141 18.7922 14.141 18.4536C14.1377 18.1173 14.0017 17.7958 13.7626 17.5592C13.5236 17.3225 13.2008 17.1898 12.8644 17.1898Z" fill="white" _ngcontent-ng-c916343373=""></path>
<circle cx="13" cy="13" r="10.9" stroke="white" stroke-width="2.2" _ngcontent-ng-c916343373=""></circle>
</svg>