<svg width="26" height="26" viewBox="0 0 26 26" fill="none" xmlns="http://www.w3.org/2000/svg" _ngcontent-ng-c471389002="" aria-hidden="true">
<path fill-rule="evenodd" clip-rule="evenodd" d="M3 4.07447C3 2.37654 4.37078 1.00009 6.06173 1.00009H17.9136C18.5136 1.00009 19 1.48851 19 2.091C19 2.69349 18.5136 3.18191 17.9136 3.18191H6.06173C5.57081 3.18191 5.17284 3.58152 5.17284 4.07447V21.9257C5.17284 22.4187 5.57081 22.8183 6.06173 22.8183H17.9136C18.5136 22.8183 19 23.3067 19 23.9092C19 24.5117 18.5136 25.0001 17.9136 25.0001H6.06173C4.37078 25.0001 3 23.6236 3 21.9257V4.07447Z" fill="white" _ngcontent-ng-c471389002=""></path>
<path d="M21.6521 11.6993L18.0849 8.32421C17.625 7.88697 16.8834 7.89348 16.4306 8.33469C15.9767 8.77688 15.9818 9.48982 16.4427 9.9264L17.9763 11.3748H10.1696C9.52311 11.3748 9 11.878 9 12.4998C9 13.1216 9.52308 13.6249 10.1696 13.6249H17.9763L16.4423 15.0737C15.9809 15.5108 15.9781 16.223 16.4302 16.6646L16.431 16.6654C16.6592 16.8872 16.9612 17 17.2632 17C17.559 17 17.8573 16.8918 18.0849 16.6754L21.6511 13.3012L21.652 13.3004C21.8734 13.0897 22 12.8019 22 12.4998C22 12.198 21.8743 11.9109 21.6521 11.6993Z" fill="white" _ngcontent-ng-c471389002=""></path>
</svg>