<svg width="205" height="128" viewBox="0 0 205 128" fill="none" xmlns="http://www.w3.org/2000/svg">
<path d="M152.103 101.787L152.285 106.739L184.212 125.133L187.249 125.133C188.263 125.133 188.635 123.801 187.768 123.279L152.103 101.787Z" fill="white"/>
<path d="M60.1873 101.787L60.0057 106.739L28.0788 125.133L25.0415 125.133C24.0277 125.133 23.6553 123.801 24.5229 123.279L60.1873 101.787Z" fill="white"/>
<path d="M194.962 113.762H17.1041C11.5502 113.762 7 109.038 7 103.271V102.785H204.999V103.271C205.066 109.107 200.516 113.762 194.962 113.762Z" fill="#D8E0EB"/>
<path d="M85.7832 106.41L88.4216 110.608H125.288L127.712 106.41H85.7832Z" fill="white"/>
<path d="M205 106.777H7L7.15246 4.99251C7.15659 2.23401 9.39395 0 12.1525 0H200C202.761 0 205 2.23858 205 5V106.777Z" fill="#1B1E27"/>
<mask id="mask0_1943_137" style="mask-type:alpha" maskUnits="userSpaceOnUse" x="7" y="0" width="198" height="107">
<path d="M205 106.777H7L7.15246 4.99251C7.15659 2.23401 9.39395 0 12.1525 0H200C202.761 0 205 2.23858 205 5V106.777Z" fill="#1B1E27"/>
</mask>
<g mask="url(#mask0_1943_137)">
<mask id="mask1_1943_137" style="mask-type:alpha" maskUnits="userSpaceOnUse" x="105" y="1" width="93" height="75">
<path d="M105.707 1H197.663V75.5435H105.707V1Z" fill="url(#paint0_linear_1943_137)"/>
</mask>
<g mask="url(#mask1_1943_137)">
<path d="M174.371 145.841C174.635 146.678 174.869 147.455 175.118 148.233C175.192 148.218 175.265 148.218 175.338 148.204C175.338 147.03 175.338 145.841 175.338 144.667C175.411 144.653 175.485 144.623 175.573 144.609C175.807 145.093 176.041 145.592 176.261 146.076C176.305 146.076 176.349 146.061 176.393 146.061C176.393 145.636 176.437 145.21 176.378 144.799C176.217 143.449 176.012 142.085 175.88 140.735C175.836 140.221 175.983 139.678 175.953 139.165C175.895 138.372 175.807 137.58 175.631 136.802C175.441 135.936 175.148 135.085 174.913 134.234C174.386 132.268 174.005 130.243 173.331 128.335C172.73 126.633 172.628 124.902 172.51 123.155C172.496 122.979 172.569 122.759 172.686 122.612C173.111 122.025 173.258 121.438 172.833 120.719C173.77 120.397 173.697 119.59 173.844 118.856C174.166 117.359 174.063 116.009 172.965 114.806C172.32 114.102 171.822 113.294 171.221 112.561C171.031 112.326 170.767 112.179 170.532 112.003C171.148 110.228 170.972 108.437 170.518 106.647C170.43 106.31 170.21 105.987 169.99 105.708C168.965 104.373 167.91 103.052 166.899 101.717C166.738 101.511 166.577 101.159 166.635 100.939C167.031 99.6036 166.533 98.3857 166.196 97.1531C166.064 96.6395 165.932 96.1112 165.917 95.583C165.859 92.2079 165.419 88.877 164.892 85.5606C164.848 85.3259 164.965 85.003 165.126 84.7976C165.566 84.196 166.049 83.609 166.562 83.0661C166.738 82.8753 167.031 82.8019 167.368 82.6112C167.177 84.4161 166.005 85.6047 165.346 87.1454C165.536 87.1014 165.697 87.1161 165.815 87.0427C167.368 85.9862 168.906 84.8856 169.639 83.0514C169.683 82.934 169.785 82.8313 169.8 82.7286C169.873 81.6133 170.664 81.0411 171.47 80.4688C171.602 80.3661 171.748 80.2633 171.866 80.1313C173.551 78.2237 175.236 76.316 176.935 74.3938C177.184 74.1149 177.419 73.8361 177.682 73.6014C178.034 73.2932 178.195 73.0144 177.961 72.5302C177.873 72.3541 177.99 71.9872 178.137 71.8405C178.928 71.0334 179.338 70.0209 179.719 68.9791C179.792 68.7736 179.895 68.5242 179.836 68.3481C179.543 67.3796 180.041 66.6606 180.51 65.9122C182.005 63.4176 182.415 60.6589 182.693 57.8855C182.722 57.6214 182.503 57.3279 182.385 57.0198C181.184 57.6801 180.671 59.0888 179.177 59.2502C178.854 58.2084 179.587 57.3426 179.616 56.3154C179.074 56.6236 178.547 56.9317 177.887 57.2986C178.137 56.2714 178.327 55.3763 178.561 54.4959C179.03 52.735 178.854 51.0622 177.902 49.492C177.213 48.3475 176.466 47.2322 175.792 46.073C175.016 44.723 174.313 43.3436 173.58 41.979C173.829 41.7589 173.976 41.6268 174.107 41.4947C174.649 40.9224 174.972 40.3208 174.664 39.455C174.049 37.6795 173.521 35.8746 172.921 34.099C172.642 33.248 172.335 33.1452 171.47 33.4387C170.913 33.6295 170.371 33.8202 169.785 34.0257C169.727 33.8789 169.683 33.7762 169.653 33.6588C169.302 32.4849 169.346 32.5289 170.327 31.7365C171.558 30.7534 172.129 29.374 172.173 27.8186C172.232 25.8816 171.851 24.018 170.43 22.624C169.36 21.5822 168.1 20.6137 166.547 20.4816C165.668 20.4082 164.98 20.3202 164.364 19.6158C163.705 18.8528 162.782 18.7501 161.815 18.9849C161.566 19.0436 161.302 19.0289 160.936 19.0436C161.097 18.7207 161.199 18.5153 161.302 18.2952C160.247 16.6517 158.591 15.9473 156.789 15.5071C156.584 15.4484 156.364 15.3017 156.218 15.1256C155.676 14.5386 155.148 13.9957 154.255 14.0544C153.742 14.0984 153.229 14.0544 152.716 14.0544C151.94 14.0544 151.573 13.8196 151.544 13.0712C151.486 11.4571 150.753 10.1365 149.889 8.84515C149.112 7.6859 148.438 6.45329 147.676 5.19133C147.676 5.19133 147.53 5.27937 147.31 5.39677C146.211 3.7973 144.629 2.79947 142.885 1.96306C140.98 1.05327 139.046 0.701096 137.01 1.28805C135.721 1.6549 134.929 2.68208 134.182 3.70926C133.874 4.14948 133.611 4.61904 133.274 5.04459C132.922 5.48481 132.512 5.89568 132.058 6.37992C132.321 6.71742 132.087 6.93753 131.677 7.21634C130.461 8.05275 129.289 8.94786 127.999 9.887C128.615 10.2392 129.23 10.606 129.948 11.0022C129.713 11.4571 129.464 11.9707 129.215 12.4843C129.684 12.8365 130.124 13.1593 130.578 13.5115C130.534 13.7169 130.475 13.9517 130.417 14.2452C130.197 14.2892 129.948 14.3332 129.596 14.3919C130.461 15.5658 131.281 16.681 132.19 17.9137C131.794 17.9724 131.545 18.0164 131.047 18.0897C131.721 18.7501 132.292 19.3077 132.878 19.8946C132.761 19.9533 132.585 20.0414 132.409 20.1294C132.424 20.2028 132.409 20.2908 132.453 20.3349C133.098 21.0539 133.728 21.8023 134.417 22.4773C134.9 22.9468 135.325 23.3724 134.754 24.1501C135.296 24.2381 135.735 24.2968 136.307 24.3849C136.043 24.6637 135.823 24.8544 135.662 25.0599C134.68 26.2631 133.669 27.4371 132.732 28.6843C132.175 29.4327 132.263 29.5941 133.127 30.093C132.658 30.9588 132.058 31.7659 131.735 32.6757C130.856 35.0529 130.373 37.5181 130.607 40.0713C130.842 42.5806 130.138 44.9578 129.713 47.379C129.582 48.1274 129.113 48.817 128.761 49.6388C127.34 50.1524 126.27 51.2529 125.465 52.7056C124.966 53.6007 124.263 54.3931 123.516 55.1709C123.56 54.9507 123.618 54.7453 123.662 54.5252C122.857 53.7622 122.769 53.7475 121.831 54.2757C121.142 54.6719 120.395 54.9801 119.75 55.4497C119.326 55.7578 119.076 56.3154 118.696 56.7116C118.168 57.2546 117.611 57.7975 117.025 58.2817C116.088 59.0448 115.121 59.7345 114.241 60.5855C113.318 61.466 113.011 62.3611 112.938 63.491C112.879 64.4155 113.04 65.4426 112.674 66.235C112.19 67.2916 112.351 68.3334 112.22 69.3753C112.19 69.6247 112.322 69.8888 112.381 70.1383C112.439 70.1383 112.498 70.1383 112.557 70.1383C112.835 69.61 113.113 69.0671 113.392 68.5388C113.465 68.5242 113.538 68.5095 113.611 68.4948C113.802 69.0084 114.139 69.5367 114.154 70.0503C114.168 70.7693 114.476 71.2389 114.93 71.7084C115.37 72.1486 115.795 72.6035 116.234 73.0438C116.293 73.0144 116.351 72.9851 116.425 72.9557C116.293 72.4421 116.175 71.9285 116.029 71.3122C116.63 71.5617 117.113 71.7084 117.304 72.3981C117.582 73.484 118.403 74.0416 119.604 74.1296C119.384 73.3519 119.164 72.5595 118.945 71.7818C119.018 71.7378 119.091 71.6937 119.164 71.635C119.384 71.6937 119.619 71.7524 119.838 71.8111C120 71.8552 120.234 71.9872 120.307 71.9285C120.879 71.459 121.538 71.8405 122.124 71.6937C122.402 71.6204 122.827 71.4443 122.842 71.2682C122.871 71.0041 122.695 70.6225 122.476 70.4171C121.904 69.8888 121.919 69.7274 122.432 69.1258C123.223 68.1867 124.073 67.2622 124.234 65.9562C124.248 65.8829 124.248 65.7655 124.278 65.7655C125.157 65.5013 125.157 64.5182 125.699 64.0193C126.3 63.4763 126.988 63.0214 127.633 62.5225C127.838 62.3611 128.146 62.1997 128.19 61.9943C128.395 61.1872 129.01 60.8497 129.669 60.4975C130.549 60.0279 131.384 59.4997 132.38 59.0741C131.94 59.8665 131.457 60.6443 131.061 61.4513C130.856 61.8769 130.812 62.3758 130.695 62.8453C130.534 63.5203 130.549 64.2981 130.197 64.8557C127.926 68.5388 126.578 72.6035 125.113 76.6535C123.677 80.5715 122.871 84.5775 122.534 88.7009C122.505 88.9944 122.505 89.3172 122.373 89.552C121.699 90.7406 121.553 92.0612 121.435 93.3525C121.347 94.3503 121.626 95.3775 121.758 96.3754C121.816 96.8156 122.007 97.2558 121.948 97.6667C121.597 100.147 121.919 102.582 122.183 105.033C122.197 105.194 122.139 105.356 122.095 105.517C121.772 106.72 121.45 107.909 121.128 109.112C121.113 109.156 121.084 109.215 121.113 109.259C121.553 110.257 120.717 110.829 120.366 111.578C119.648 113.118 118.989 114.674 118.285 116.273C118.505 116.391 118.681 116.479 118.857 116.567C118.871 116.64 118.901 116.699 118.901 116.728C118.417 118.005 118.989 119.032 119.663 120.059C119.794 120.265 119.912 120.587 119.868 120.822C119.56 122.231 119.12 123.522 118.036 124.623C116.556 126.134 115.003 127.528 113.172 128.599C112.571 128.952 112.117 129.553 111.531 129.92C111.267 130.096 110.784 130.111 110.476 129.993C108.923 129.421 107.516 130.668 107.253 131.828C107.004 132.987 106.916 134.19 106.799 135.379C106.769 135.672 106.93 135.98 106.974 136.156C106.081 137.213 105.202 138.255 104.337 139.297C104.396 139.355 104.454 139.429 104.528 139.487C105.553 138.856 106.388 137.844 107.956 137.859C106.462 138.607 106.022 139.942 105.436 141.19C106.652 139.928 108.132 139.165 109.729 138.739C109.084 139.884 108.425 141.058 107.766 142.217C107.824 142.261 107.883 142.305 107.941 142.349C109.436 140.837 110.828 139.15 113.318 139.267C113.025 140.104 112.762 140.881 112.483 141.659C114.08 139.561 116.278 138.695 118.827 138.196C118.637 138.798 118.476 139.297 118.329 139.796C119.692 138.27 121.289 137.228 123.355 136.773C123.252 137.36 123.164 137.873 123.047 138.519C124.952 135.658 127.413 134.645 130.842 135.731C130.197 135.056 129.684 134.513 129.083 133.882C130.168 133.354 131.296 133.178 132.541 133.941C131.882 132.855 131.75 132.752 129.889 132.033C129.992 131.358 130.08 130.654 130.197 129.964C130.358 129.069 130.05 128.35 129.391 127.734C129.215 127.558 129.157 127.249 129.098 126.985C129.025 126.677 129.083 126.325 128.937 126.075C128.761 125.753 128.263 125.518 128.234 125.224C128.146 123.904 128.014 122.51 129.01 121.424C129.333 121.072 129.875 120.94 130.285 120.646C130.607 120.426 130.842 120.03 131.179 119.883C132.072 119.487 131.999 118.445 132.57 117.873C133.23 117.198 133.625 116.391 133.669 115.466C133.699 114.586 133.874 113.603 132.981 112.957C132.922 112.913 132.849 112.781 132.864 112.707C133.039 111.886 132.746 110.917 133.655 110.33C133.977 110.125 134.226 109.802 134.461 109.479C134.871 108.892 135.296 108.203 134.959 107.513C134.021 105.591 134.065 103.478 133.699 101.453C133.596 100.866 133.611 100.381 134.036 99.9118C134.182 99.7504 134.211 99.4275 134.226 99.1634C134.299 98.2243 134.461 97.2998 135.266 96.6835C136.526 95.715 136.907 94.3063 137.2 92.8683C137.772 90.0509 138.241 87.2041 138.827 84.3867C139.193 82.6405 140.043 81.1291 141.42 79.9552C142.153 80.6302 142.87 81.2758 143.574 81.9362C143.662 82.0242 143.764 82.171 143.852 82.1563C144.673 82.0976 144.717 82.7726 144.936 83.2715C145.361 84.2253 145.845 85.1644 146.196 86.1476C146.475 86.9253 146.519 87.7911 146.826 88.5395C147.618 90.4471 148.497 92.3253 149.376 94.1889C150.343 96.2286 151.295 98.283 152.35 100.279C153.83 103.052 155.412 105.767 156.921 108.511C157.141 108.907 157.361 109.421 157.302 109.846C157.097 111.284 157.39 112.487 158.474 113.5C159.016 114.013 159.383 114.468 158.767 115.349C158.372 115.906 158.606 116.904 158.548 117.697C158.548 117.77 158.548 117.843 158.577 117.917C158.972 118.709 158.152 119.56 158.767 120.367C159.265 121.013 159.69 121.732 160.086 122.451C160.687 123.522 161.756 123.845 162.752 124.329C163.016 124.447 163.339 124.652 163.426 124.887C163.851 126.149 164.291 127.425 164.569 128.731C164.716 129.392 164.525 130.111 164.467 130.8C164.379 131.696 164.262 132.591 164.159 133.486C164.13 133.706 164.174 133.985 164.056 134.117C163.397 134.85 163.412 135.775 163.324 136.67C163.133 138.754 162.972 140.852 162.811 142.951C162.767 143.479 162.811 144.007 162.811 144.638C162.958 144.462 163.046 144.345 163.192 144.154C163.031 145.43 162.87 146.634 162.709 147.837C162.782 147.852 162.84 147.881 162.914 147.896C163.353 147.03 163.778 146.164 164.188 145.328C164.335 145.342 164.364 145.342 164.379 145.357C165.404 145.68 165.566 146.34 165.375 147.367C165.199 148.336 165.331 149.363 165.331 150.581C165.917 149.143 166.415 147.881 166.899 146.707C167.104 146.663 167.148 146.634 167.192 146.648C168.672 146.971 168.657 146.971 168.833 148.527C168.906 149.231 169.038 149.921 169.155 150.625C169.17 150.713 169.228 150.801 169.331 151.065C169.565 149.891 169.8 148.879 169.946 147.866C170.034 147.221 170.357 146.971 170.972 146.912C172.217 146.78 172.232 146.751 172.628 147.94C172.891 148.732 173.126 149.524 173.375 150.317C173.389 150.346 173.448 150.361 173.551 150.434C173.551 149.348 173.595 148.321 173.536 147.294C173.521 146.634 173.639 146.149 174.371 145.841ZM155.793 56.0513C156.013 56.0806 156.145 56.1247 156.247 56.11C157.097 56.0073 158.02 56.1247 158.46 55.0388C158.958 53.8209 159.632 52.6763 160.174 51.4877C160.306 51.1942 160.262 50.8127 160.276 50.5339C161.112 49.0078 161.961 47.467 162.767 45.9996C163.133 46.2784 163.426 46.5279 163.749 46.748C163.939 46.8801 164.218 46.9241 164.335 47.1002C164.98 48.0687 165.61 49.0665 166.196 50.0643C166.562 50.6953 167.089 51.3263 167.163 52.0013C167.338 53.5127 167.28 55.0535 167.294 56.5649C167.309 58.3404 167.294 60.116 167.294 61.9356C166.664 61.9649 166.533 62.4932 166.606 63.1535C166.65 63.6671 166.723 64.1807 166.723 64.6796C166.723 65.7361 166.694 66.7926 166.664 67.6437C163.514 69.0231 161.155 70.7693 160.921 74.4084C160.218 73.3959 159.573 72.5448 159.031 71.6204C158.621 70.916 158.24 70.153 158.035 69.3753C157.478 67.2182 157.009 65.0464 156.54 62.9921C156.584 62.7133 156.672 62.5078 156.643 62.3318C156.482 61.5687 156.291 60.8203 156.115 60.0573C155.94 59.3236 156.482 58.3845 155.515 57.8562C155.485 57.8415 155.5 57.7682 155.5 57.7095C155.632 57.1812 155.705 56.6236 155.793 56.0513Z" fill="#0C0D0E"/>
</g>
<path d="M25.9783 23.3044H62.2718V27.511H25.9783V23.3044Z" fill="#282B33"/>
<path d="M25.9783 29.4675H84.3804V35.7284H25.9783V29.4675Z" fill="#282B33"/>
<path d="M25.9783 66.0544C25.9783 65.5142 26.4163 65.0762 26.9565 65.0762H59.2391C59.7794 65.0762 60.2174 65.5142 60.2174 66.0544V98.337C60.2174 98.8773 59.7794 99.3153 59.2391 99.3153H26.9565C26.4163 99.3153 25.9783 98.8773 25.9783 98.337V66.0544Z" fill="#2632A5"/>
<path d="M62.1738 66.0544C62.1738 65.5142 62.6118 65.0762 63.1521 65.0762H95.4347C95.975 65.0762 96.413 65.5142 96.413 66.0544V98.337C96.413 98.8773 95.975 99.3153 95.4347 99.3153H63.1521C62.6118 99.3153 62.1738 98.8773 62.1738 98.337V66.0544Z" fill="#2632A5"/>
<path d="M98.3696 66.0544C98.3696 65.5142 98.8076 65.0762 99.3479 65.0762H131.631C132.171 65.0762 132.609 65.5142 132.609 66.0544V98.337C132.609 98.8773 132.171 99.3153 131.631 99.3153H99.3479C98.8076 99.3153 98.3696 98.8773 98.3696 98.337V66.0544Z" fill="#2632A5"/>
<path d="M134.565 66.0544C134.565 65.5142 135.003 65.0762 135.543 65.0762H167.826C168.366 65.0762 168.804 65.5142 168.804 66.0544V98.337C168.804 98.8773 168.366 99.3153 167.826 99.3153H135.543C135.003 99.3153 134.565 98.8773 134.565 98.337V66.0544Z" fill="#2632A5"/>
<path d="M170.761 66.0544C170.761 65.5142 171.199 65.0762 171.739 65.0762H204.022C204.562 65.0762 205 65.5142 205 66.0544V98.337C205 98.8773 204.562 99.3153 204.022 99.3153H171.739C171.199 99.3153 170.761 98.8773 170.761 98.337V66.0544Z" fill="#2632A5"/>
<g filter="url(#filter0_b_1943_137)">
<path d="M25.9783 57.25H48.1848V62.1413H25.9783V57.25Z" fill="#282B33"/>
</g>
<path d="M7 106.652H21.1522V1.00016H7V106.652Z" fill="url(#paint1_linear_1943_137)"/>
<path fill-rule="evenodd" clip-rule="evenodd" d="M14.0761 42.2076L14.025 42.3556C13.9413 42.5977 13.7121 42.741 13.4768 42.741H13.3807L13.4374 42.7797C13.6415 42.9192 13.7401 43.1802 13.6546 43.4277L13.62 43.5279L13.7451 43.4423C13.944 43.3065 14.2083 43.3065 14.4071 43.4423L14.5323 43.5279L14.4977 43.4277C14.4122 43.1802 14.5108 42.9192 14.7149 42.7797L14.7716 42.741H14.6755C14.4401 42.741 14.2109 42.5977 14.1273 42.3556L14.0761 42.2076ZM14.6755 42.3497C14.5942 42.3497 14.5222 42.3005 14.4971 42.2278L14.2545 41.5254C14.1983 41.3629 13.9539 41.3629 13.8978 41.5254L13.6551 42.2278C13.63 42.3005 13.558 42.3497 13.4768 42.3497H12.6915C12.5099 42.3497 12.4344 42.5683 12.5813 42.6687L13.2166 43.1028C13.2823 43.1477 13.3098 43.2273 13.2847 43.3L13.0421 44.0023C12.9859 44.1648 13.1837 44.2999 13.3306 44.1995L13.9659 43.7654C14.0316 43.7205 14.1206 43.7205 14.1863 43.7654L14.8216 44.1995C14.9686 44.2999 15.1663 44.1648 15.1102 44.0023L14.8675 43.3C14.8424 43.2273 14.8699 43.1477 14.9356 43.1028L15.5709 42.6687C15.7179 42.5683 15.6424 42.3497 15.4607 42.3497H14.6755Z" fill="white"/>
<path opacity="0.5" fill-rule="evenodd" clip-rule="evenodd" d="M15.0569 49.7628L15.0566 49.7622C14.9637 49.5579 14.9139 49.4871 14.8212 49.4473C14.7411 49.4135 14.6599 49.4158 14.5838 49.4525C14.4325 49.5261 14.2616 49.5729 14.0805 49.5739C13.8957 49.5749 13.7211 49.5274 13.5674 49.4523C13.4913 49.4154 13.41 49.4134 13.332 49.4469L13.3316 49.4471C13.2384 49.487 13.1889 49.5574 13.0958 49.7622L13.0955 49.7628C13.0611 49.8382 12.9953 49.9821 12.9355 50.146C12.8735 50.3156 12.8276 50.4811 12.8193 50.603L12.8192 50.6035C12.8074 50.7728 12.8919 50.8961 13.0077 50.9449L13.0078 50.945C13.1057 50.9863 13.2077 50.9675 13.2927 50.8643C13.362 50.7764 13.4531 50.6805 13.5596 50.5995C13.6646 50.5195 13.8035 50.4396 13.9652 50.413L13.9906 50.4088H14.1612L14.1865 50.413C14.3496 50.4398 14.4888 50.5203 14.5943 50.601C14.7011 50.6828 14.7919 50.7791 14.8612 50.8664C14.922 50.94 14.9896 50.9656 15.0481 50.9656C15.0765 50.9656 15.109 50.9598 15.1436 50.9451L15.144 50.9449C15.2597 50.8961 15.3444 50.7728 15.3331 50.6032C15.3244 50.4809 15.2784 50.3153 15.2166 50.1459C15.1568 49.9819 15.0912 49.8379 15.0569 49.7628ZM15.6469 50.5816C15.6665 50.8725 15.5171 51.1289 15.2662 51.2347C15.1942 51.2652 15.1201 51.2801 15.0481 51.2801C14.8863 51.2801 14.7316 51.2049 14.6163 51.0638C14.5019 50.9189 14.3225 50.7541 14.1355 50.7233H14.0162C13.8314 50.7537 13.6507 50.9174 13.538 51.0611C13.3696 51.2679 13.12 51.3337 12.8855 51.2347C12.6346 51.1289 12.4852 50.8725 12.5055 50.5816C12.5284 50.247 12.7395 49.7852 12.8092 49.6327L12.8095 49.6321C12.9006 49.4317 12.9915 49.2506 13.2078 49.158C13.3703 49.0881 13.5472 49.0929 13.705 49.1695C13.8219 49.2267 13.9491 49.2601 14.0788 49.2594C14.2066 49.2587 14.3314 49.2256 14.4467 49.1695C14.6052 49.0929 14.7814 49.0888 14.9446 49.158C15.1606 49.2505 15.2518 49.4318 15.3429 49.6321C15.4123 49.784 15.6233 50.2465 15.6469 50.5816Z" fill="#EEEEEE"/>
<g opacity="0.5">
<path d="M14.96 56.2562L14.9302 56.2761C14.8286 56.3528 14.7378 56.4219 14.6566 56.4839C14.5163 56.4108 14.3605 56.3634 14.1954 56.3478V56.0643C14.1954 56.0245 14.2319 55.9947 14.2716 55.9981C14.5231 56.0278 14.7581 56.1205 14.96 56.2562Z" fill="#EEEEEE"/>
<path d="M15.1722 56.9825C15.2527 57.1249 15.3061 57.2845 15.3257 57.4544H15.5822C15.6219 57.4544 15.6517 57.418 15.6484 57.3783C15.6186 57.1234 15.5259 56.8884 15.3902 56.6865C15.3884 56.6919 15.3847 56.6973 15.3806 56.7032C15.3771 56.7082 15.3734 56.7136 15.3704 56.7196C15.3387 56.7615 15.3086 56.8016 15.2797 56.8399L15.2766 56.844C15.2398 56.8929 15.205 56.939 15.1722 56.9825Z" fill="#EEEEEE"/>
<path d="M15.331 57.6895C15.3125 57.9524 15.2133 58.193 15.058 58.3867L15.2247 58.5534C15.2545 58.5832 15.3009 58.5799 15.324 58.5468C15.5028 58.3217 15.612 58.0536 15.6484 57.7656C15.6517 57.7259 15.6219 57.6895 15.5822 57.6895H15.331Z" fill="#EEEEEE"/>
<path d="M13.0957 58.3885C12.9402 58.1953 12.8406 57.9552 12.8215 57.6927H12.5668C12.5304 57.6894 12.5006 57.7258 12.5039 57.7655C12.537 58.0535 12.6496 58.3216 12.8283 58.55C12.8515 58.5798 12.9011 58.5831 12.9276 58.5566L13.0957 58.3885Z" fill="#EEEEEE"/>
<path d="M12.8265 57.4544C12.8559 57.1996 12.9615 56.9679 13.1199 56.7828L12.9276 56.5905C12.8978 56.5608 12.8515 56.5641 12.8283 56.5972C12.6562 56.8156 12.5403 57.087 12.5039 57.3783C12.5006 57.418 12.5304 57.4544 12.5701 57.4544H12.8265Z" fill="#EEEEEE"/>
<path d="M13.2914 56.6169C13.4782 56.4677 13.7085 56.3705 13.9601 56.3475V56.0609C13.9601 56.0245 13.9237 55.9947 13.884 55.9981C13.5927 56.0345 13.3213 56.1503 13.1029 56.3224C13.0731 56.3456 13.0698 56.3952 13.0962 56.4217L13.2914 56.6169Z" fill="#EEEEEE"/>
<path d="M15.0691 56.4647C15.1453 56.4117 15.2379 56.5044 15.1817 56.5772C15.1369 56.6363 15.09 56.6983 15.0424 56.7612C14.8368 57.0332 14.6181 57.3224 14.4998 57.4676C14.5064 57.5007 14.5131 57.5338 14.5131 57.5702C14.5131 57.8118 14.3178 58.0071 14.0762 58.0071C13.8345 58.0071 13.6392 57.8118 13.6392 57.5702C13.6392 57.3286 13.8345 57.1333 14.0762 57.1333C14.1126 57.1333 14.1457 57.1399 14.1788 57.1465C14.3575 57.0042 14.7547 56.703 15.0691 56.4647Z" fill="#EEEEEE"/>
</g>
<g opacity="0.5">
<path fill-rule="evenodd" clip-rule="evenodd" d="M14.0384 64.1828C14.1849 64.1828 14.3037 64.064 14.3037 63.9175C14.3037 63.7711 14.1849 63.6523 14.0384 63.6523C13.8919 63.6523 13.7731 63.7711 13.7731 63.9175C13.7731 64.064 13.8919 64.1828 14.0384 64.1828ZM14.0384 64.5741C14.401 64.5741 14.695 64.2802 14.695 63.9175C14.695 63.5549 14.401 63.261 14.0384 63.261C13.6758 63.261 13.3818 63.5549 13.3818 63.9175C13.3818 64.2802 13.6758 64.5741 14.0384 64.5741Z" fill="white"/>
<path fill-rule="evenodd" clip-rule="evenodd" d="M14.959 66.0076C14.9362 65.5189 14.5327 65.1296 14.0382 65.1296C13.5438 65.1296 13.1403 65.5189 13.1174 66.0076C13.1251 66.0086 13.1338 66.0095 13.1434 66.0103C13.2318 66.018 13.3475 66.0147 13.508 66.0068C13.5293 66.0058 13.5513 66.0046 13.5739 66.0035C13.7119 65.9965 13.872 65.9884 14.0382 65.9884C14.2045 65.9884 14.3645 65.9965 14.5026 66.0035C14.5252 66.0046 14.5472 66.0058 14.5685 66.0068C14.7289 66.0147 14.8446 66.018 14.9331 66.0103C14.9427 66.0095 14.9513 66.0086 14.959 66.0076ZM14.4813 66.3942C14.9885 66.4199 15.3513 66.4382 15.3513 66.0514C15.3513 65.3262 14.7634 64.7383 14.0382 64.7383C13.313 64.7383 12.7251 65.3262 12.7251 66.0514C12.7251 66.4382 13.0879 66.4199 13.5951 66.3942C13.7335 66.3872 13.8827 66.3797 14.0382 66.3797C14.1937 66.3797 14.3429 66.3872 14.4813 66.3942Z" fill="white"/>
</g>
<g filter="url(#filter1_b_1943_137)">
<path d="M10.8525 8.07608C10.8525 6.33919 12.2606 4.93115 13.9975 4.93115V4.93115C15.7344 4.93115 17.1424 6.33919 17.1424 8.07608V8.07608C17.1424 9.81298 15.7344 11.221 13.9975 11.221V11.221C12.2606 11.221 10.8525 9.81298 10.8525 8.07608V8.07608Z" fill="#9B99AD" fill-opacity="0.15"/>
</g>
<path fill-rule="evenodd" clip-rule="evenodd" d="M14.318 8.7168C14.1464 8.80959 14.0097 8.8389 13.8336 8.8389C13.2716 8.8389 12.8182 8.38541 12.8182 7.82853C12.8182 7.27164 13.2716 6.81815 13.8336 6.81815C14.3955 6.81815 14.849 7.27164 14.849 7.82853C14.849 8.08961 14.7499 8.32709 14.5863 8.50674C14.4948 8.60717 14.435 8.65352 14.318 8.7168ZM14.8188 8.71851C15.033 8.48333 15.1635 8.17111 15.1635 7.82853C15.1635 7.09682 14.5681 6.50366 13.8336 6.50366C13.0991 6.50366 12.5037 7.09682 12.5037 7.82853C12.5037 8.56023 13.0991 9.15339 13.8336 9.15339C14.0632 9.15339 14.2792 9.09542 14.4677 8.99336L15.0605 9.58392C15.1471 9.67015 15.2874 9.67015 15.374 9.58392C15.4606 9.49768 15.4606 9.35787 15.374 9.27164L14.8188 8.71851Z" fill="#EEEEEE"/>
</g>
<path d="M0 11.9785C0 10.8739 0.895431 9.97852 2 9.97852H44.6178C45.7224 9.97852 46.6178 10.8739 46.6178 11.9785V30.3761C46.6178 31.4807 45.7224 32.3761 44.6178 32.3761H2C0.895431 32.3761 0 31.4807 0 30.3761L0 11.9785Z" fill="url(#paint2_linear_1943_137)"/>
<path d="M6.40552 27.2077V14.959H10.8147C12.3941 14.959 13.594 15.2478 14.4146 15.8255C15.2408 16.4031 15.6539 17.2416 15.6539 18.3408C15.6539 18.9746 15.5078 19.5158 15.2155 19.9645C14.9232 20.4131 14.4933 20.744 13.9256 20.9571C14.5663 21.1254 15.0581 21.4395 15.401 21.8994C15.7438 22.3592 15.9152 22.9201 15.9152 23.5819C15.9152 24.7821 15.533 25.685 14.7687 26.2907C14.0099 26.8908 12.883 27.1965 11.388 27.2077H6.40552ZM9.36466 22.0003V24.9363H11.3037C11.8376 24.9363 12.2479 24.8157 12.5346 24.5745C12.8212 24.3278 12.9645 23.9829 12.9645 23.5398C12.9645 22.5191 12.4559 22.0059 11.4386 22.0003H9.36466ZM9.36466 20.0654H10.9075C11.5538 20.0598 12.0147 19.942 12.2901 19.7121C12.5655 19.4821 12.7032 19.1428 12.7032 18.6942C12.7032 18.1782 12.5542 17.808 12.2564 17.5837C11.9585 17.3538 11.4779 17.2388 10.8147 17.2388H9.36466V20.0654Z" fill="white"/>
<path d="M21.8335 27.3759C20.434 27.3759 19.3015 26.9609 18.436 26.1309C17.5704 25.2952 17.1377 24.21 17.1377 22.8752V22.6397C17.1377 21.7087 17.3091 20.887 17.6519 20.1748C18.0004 19.4625 18.5062 18.9129 19.1694 18.5259C19.8326 18.1333 20.6195 17.937 21.53 17.937C22.8115 17.937 23.8231 18.3352 24.565 19.1316C25.3069 19.9224 25.6779 21.0272 25.6779 22.4462V23.5482H20.0294C20.1305 24.0586 20.3525 24.4596 20.6954 24.7512C21.0382 25.0428 21.4822 25.1887 22.0274 25.1887C22.9267 25.1887 23.6292 24.8746 24.1351 24.2465L25.4334 25.7775C25.0793 26.2655 24.5763 26.6553 23.9243 26.9469C23.278 27.2329 22.581 27.3759 21.8335 27.3759ZM21.5131 20.1243C20.6813 20.1243 20.1867 20.6739 20.0294 21.7732H22.8958V21.5544C22.907 21.1002 22.7918 20.7496 22.5501 20.5029C22.3084 20.2505 21.9628 20.1243 21.5131 20.1243Z" fill="white"/>
<path d="M30.1376 15.8423V18.1053H31.6383V20.0738H30.1376V24.238C30.1376 24.5802 30.1995 24.8185 30.3231 24.9531C30.4468 25.0877 30.6913 25.155 31.0566 25.155C31.3376 25.155 31.5737 25.1382 31.7648 25.1045V27.132C31.2533 27.2946 30.7194 27.3759 30.1629 27.3759C29.185 27.3759 28.4628 27.146 27.9963 26.6861C27.5298 26.2262 27.2965 25.528 27.2965 24.5914V20.0738H26.1331V18.1053H27.2965V15.8423H30.1376Z" fill="white"/>
<path d="M37.9022 27.2077C37.8011 27.0226 37.7111 26.7506 37.6325 26.3917C37.1098 27.0478 36.3791 27.3759 35.4405 27.3759C34.5806 27.3759 33.8499 27.1179 33.2485 26.602C32.6472 26.0804 32.3465 25.427 32.3465 24.6418C32.3465 23.6548 32.7118 22.9089 33.4424 22.4041C34.1731 21.8994 35.2353 21.647 36.6292 21.647H37.506V21.1675C37.506 20.3318 37.1435 19.914 36.4184 19.914C35.744 19.914 35.4068 20.2449 35.4068 20.9067H32.5657C32.5657 20.0262 32.9394 19.3111 33.6869 18.7615C34.4401 18.2118 35.3983 17.937 36.5618 17.937C37.7252 17.937 38.6441 18.2203 39.3186 18.7867C39.993 19.3531 40.3387 20.1299 40.3555 21.117V25.1466C40.3668 25.9822 40.496 26.6216 40.7433 27.0647V27.2077H37.9022ZM36.1234 25.3569C36.4775 25.3569 36.7697 25.2812 37.0002 25.1298C37.2362 24.9783 37.4048 24.8073 37.506 24.6166V23.1612H36.6798C35.6906 23.1612 35.196 23.6043 35.196 24.4904C35.196 24.7484 35.2831 24.9587 35.4574 25.1214C35.6316 25.2784 35.8536 25.3569 36.1234 25.3569Z" fill="white"/>
<defs>
<filter id="filter0_b_1943_137" x="15.9783" y="47.25" width="42.2065" height="24.8914" filterUnits="userSpaceOnUse" color-interpolation-filters="sRGB">
<feFlood flood-opacity="0" result="BackgroundImageFix"/>
<feGaussianBlur in="BackgroundImage" stdDeviation="5"/>
<feComposite in2="SourceAlpha" operator="in" result="effect1_backgroundBlur_1943_137"/>
<feBlend mode="normal" in="SourceGraphic" in2="effect1_backgroundBlur_1943_137" result="shape"/>
</filter>
<filter id="filter1_b_1943_137" x="0.852539" y="-5.06885" width="26.2898" height="26.2898" filterUnits="userSpaceOnUse" color-interpolation-filters="sRGB">
<feFlood flood-opacity="0" result="BackgroundImageFix"/>
<feGaussianBlur in="BackgroundImage" stdDeviation="5"/>
<feComposite in2="SourceAlpha" operator="in" result="effect1_backgroundBlur_1943_137"/>
<feBlend mode="normal" in="SourceGraphic" in2="effect1_backgroundBlur_1943_137" result="shape"/>
</filter>
<linearGradient id="paint0_linear_1943_137" x1="151.685" y1="45.2367" x2="151.685" y2="71.0257" gradientUnits="userSpaceOnUse">
<stop stop-color="#C4C4C4"/>
<stop offset="1" stop-color="#C4C4C4" stop-opacity="0"/>
</linearGradient>
<linearGradient id="paint1_linear_1943_137" x1="21.1522" y1="45.6631" x2="7" y2="45.6631" gradientUnits="userSpaceOnUse">
<stop stop-color="#191B20" stop-opacity="0"/>
<stop offset="1" stop-color="#191B20" stop-opacity="0.8"/>
</linearGradient>
<linearGradient id="paint2_linear_1943_137" x1="9.29148e-07" y1="32.4738" x2="46.6178" y2="32.4734" gradientUnits="userSpaceOnUse">
<stop stop-color="#2096D9"/>
<stop offset="1" stop-color="#5C35EE"/>
</linearGradient>
</defs>
</svg>
