<svg width="211" height="128" viewBox="0 0 211 128" fill="none" xmlns="http://www.w3.org/2000/svg">
<path d="M200.303 128H10.7674C4.84892 128 0 123.152 0 117.234V116.735H210.999V117.234C211.071 123.223 206.222 128 200.303 128Z" fill="#D8E0EB"/>
<path d="M85.7832 116.633L88.4216 120.839H125.288L127.712 116.633H85.7832Z" fill="white"/>
<path d="M205 116.75H7L7.15309 4.99315C7.15687 2.23441 9.39434 0 12.1531 0H200C202.761 0 205 2.23858 205 5V116.75Z" fill="#1B1E27"/>
<mask id="mask0_1939_2976" style="mask-type:alpha" maskUnits="userSpaceOnUse" x="7" y="0" width="198" height="117">
<path d="M205 116.75H7L7.15309 4.99315C7.15687 2.23441 9.39434 0 12.1531 0H200C202.761 0 205 2.23858 205 5V116.75Z" fill="#1B1E27"/>
</mask>
<g mask="url(#mask0_1939_2976)">
<mask id="mask1_1939_2976" style="mask-type:alpha" maskUnits="userSpaceOnUse" x="70" y="-4" width="119" height="87">
<path d="M70.5637 -4H188.786V82.0364H70.5637V-4Z" fill="url(#paint0_linear_1939_2976)"/>
</mask>
<g mask="url(#mask1_1939_2976)">
<path opacity="0.3" d="M170.319 122.4C170.531 123.073 170.72 123.699 170.921 124.324C170.98 124.312 171.039 124.312 171.098 124.301C171.098 123.356 171.098 122.4 171.098 121.456C171.157 121.444 171.216 121.421 171.287 121.409C171.476 121.798 171.664 122.2 171.842 122.589C171.877 122.589 171.912 122.577 171.948 122.577C171.948 122.235 171.983 121.893 171.936 121.562C171.806 120.477 171.641 119.379 171.535 118.293C171.499 117.88 171.617 117.443 171.594 117.03C171.546 116.393 171.476 115.756 171.334 115.13C171.18 114.434 170.944 113.749 170.755 113.065C170.33 111.483 170.024 109.854 169.481 108.32C168.997 106.951 168.914 105.558 168.819 104.154C168.808 104.012 168.867 103.835 168.961 103.717C169.303 103.245 169.422 102.773 169.079 102.195C169.835 101.935 169.776 101.286 169.894 100.696C170.153 99.492 170.071 98.4062 169.185 97.4384C168.666 96.8719 168.265 96.2227 167.781 95.6326C167.627 95.4438 167.415 95.3258 167.226 95.1841C167.722 93.7561 167.58 92.3162 167.214 90.8763C167.143 90.6048 166.966 90.3452 166.789 90.1209C165.963 89.0469 165.113 87.9847 164.298 86.9107C164.168 86.7454 164.038 86.4622 164.086 86.2851C164.404 85.2111 164.003 84.2315 163.732 83.2401C163.625 82.8271 163.519 82.4022 163.507 81.9773C163.46 79.2627 163.106 76.5836 162.681 73.9163C162.646 73.7274 162.74 73.4678 162.87 73.3025C163.224 72.8186 163.614 72.3465 164.027 71.9099C164.168 71.7564 164.404 71.6974 164.676 71.544C164.522 72.9957 163.578 73.9517 163.047 75.1909C163.2 75.1555 163.33 75.1673 163.425 75.1083C164.676 74.2585 165.915 73.3734 166.506 71.8981C166.541 71.8036 166.624 71.721 166.636 71.6384C166.695 70.7414 167.332 70.2811 167.981 69.8208C168.088 69.7382 168.206 69.6556 168.3 69.5494C169.658 68.0151 171.015 66.4808 172.385 64.9347C172.585 64.7104 172.774 64.4862 172.987 64.2973C173.27 64.0495 173.4 63.8252 173.211 63.4358C173.14 63.2941 173.234 62.9991 173.353 62.8811C173.99 62.2319 174.321 61.4176 174.627 60.5796C174.686 60.4144 174.769 60.2137 174.722 60.0721C174.486 59.2931 174.887 58.7148 175.265 58.1129C176.469 56.1065 176.8 53.8876 177.024 51.657C177.047 51.4446 176.87 51.2085 176.776 50.9607C175.808 51.4918 175.395 52.6248 174.191 52.7546C173.931 51.9166 174.521 51.2203 174.545 50.3941C174.108 50.642 173.683 50.8898 173.152 51.1849C173.353 50.3587 173.506 49.6388 173.695 48.9306C174.073 47.5144 173.931 46.1689 173.164 44.906C172.609 43.9855 172.007 43.0885 171.464 42.1561C170.838 41.0703 170.271 39.9608 169.681 38.8632C169.882 38.6862 170 38.58 170.106 38.4737C170.543 38.0135 170.803 37.5296 170.555 36.8332C170.059 35.4051 169.634 33.9534 169.15 32.5254C168.926 31.8408 168.678 31.7582 167.981 31.9942C167.533 32.1477 167.096 32.3011 166.624 32.4663C166.577 32.3483 166.541 32.2657 166.518 32.1713C166.234 31.2271 166.27 31.2625 167.061 30.6252C168.052 29.8344 168.513 28.725 168.548 27.4739C168.595 25.916 168.288 24.4171 167.143 23.2959C166.281 22.4579 165.266 21.679 164.015 21.5728C163.307 21.5137 162.752 21.4429 162.256 20.8764C161.725 20.2627 160.981 20.1801 160.202 20.3689C160.001 20.4161 159.789 20.4043 159.494 20.4161C159.623 20.1565 159.706 19.9912 159.789 19.8142C158.939 18.4923 157.605 17.9258 156.153 17.5717C155.988 17.5245 155.811 17.4065 155.692 17.2649C155.256 16.7928 154.831 16.3561 154.111 16.4033C153.697 16.4387 153.284 16.4033 152.871 16.4033C152.245 16.4033 151.95 16.2145 151.927 15.6126C151.879 14.3143 151.289 13.2521 150.593 12.2135C149.967 11.2811 149.424 10.2897 148.81 9.27468C148.81 9.27468 148.692 9.34549 148.515 9.43991C147.63 8.15345 146.355 7.35089 144.95 6.67816C143.415 5.94641 141.857 5.66315 140.216 6.13525C139.177 6.43031 138.54 7.25647 137.938 8.08264C137.69 8.43671 137.478 8.81439 137.206 9.15666C136.923 9.51073 136.592 9.84119 136.226 10.2307C136.439 10.5021 136.25 10.6792 135.919 10.9034C134.939 11.5761 133.995 12.2961 132.956 13.0514C133.452 13.3347 133.948 13.6298 134.526 13.9484C134.337 14.3143 134.137 14.7274 133.936 15.1405C134.314 15.4237 134.668 15.6834 135.034 15.9666C134.999 16.1319 134.951 16.3207 134.904 16.5567C134.727 16.5922 134.526 16.6276 134.243 16.6748C134.939 17.619 135.601 18.5159 136.332 19.5073C136.014 19.5545 135.813 19.59 135.412 19.649C135.955 20.1801 136.415 20.6286 136.887 21.1007C136.793 21.1479 136.651 21.2187 136.51 21.2895C136.521 21.3485 136.51 21.4193 136.545 21.4547C137.064 22.033 137.572 22.635 138.127 23.1779C138.516 23.5556 138.859 23.8978 138.398 24.5233C138.835 24.5942 139.189 24.6414 139.65 24.7122C139.437 24.9364 139.26 25.0899 139.13 25.2551C138.339 26.2229 137.525 27.1671 136.769 28.1703C136.321 28.7722 136.391 28.902 137.088 29.3033C136.71 29.9996 136.226 30.6488 135.967 31.3805C135.258 33.2925 134.869 35.2753 135.058 37.3289C135.246 39.3471 134.68 41.2591 134.337 43.2065C134.231 43.8084 133.853 44.3631 133.57 45.0241C132.425 45.4371 131.563 46.3223 130.914 47.4908C130.513 48.2107 129.946 48.848 129.344 49.4736C129.379 49.2965 129.427 49.1313 129.462 48.9543C128.813 48.3405 128.742 48.3287 127.986 48.7536C127.432 49.0723 126.83 49.3201 126.31 49.6978C125.968 49.9457 125.767 50.3941 125.46 50.7128C125.035 51.1495 124.587 51.5862 124.114 51.9757C123.359 52.5894 122.58 53.1441 121.872 53.8286C121.128 54.5368 120.88 55.2567 120.821 56.1655C120.774 56.9091 120.904 57.7352 120.608 58.3725C120.219 59.2223 120.349 60.0603 120.242 60.8983C120.219 61.0989 120.325 61.3113 120.372 61.512C120.42 61.512 120.467 61.512 120.514 61.512C120.738 61.0871 120.963 60.6504 121.187 60.2255C121.246 60.2137 121.305 60.2019 121.364 60.1901C121.517 60.6032 121.789 61.0281 121.801 61.4412C121.812 62.0195 122.06 62.3972 122.426 62.7748C122.78 63.1289 123.123 63.4948 123.477 63.8488C123.524 63.8252 123.571 63.8016 123.63 63.778C123.524 63.365 123.43 62.9519 123.312 62.4562C123.796 62.6568 124.185 62.7748 124.339 63.3295C124.563 64.2029 125.224 64.6514 126.192 64.7222C126.015 64.0967 125.838 63.4594 125.661 62.8338C125.72 62.7984 125.779 62.763 125.838 62.7158C126.015 62.763 126.204 62.8102 126.381 62.8574C126.511 62.8929 126.7 62.9991 126.759 62.9519C127.219 62.5742 127.75 62.8811 128.223 62.763C128.447 62.704 128.789 62.5624 128.801 62.4208C128.825 62.2083 128.683 61.9015 128.506 61.7362C128.045 61.3113 128.057 61.1815 128.47 60.6976C129.108 59.9423 129.793 59.1987 129.922 58.1483C129.934 58.0893 129.934 57.9949 129.958 57.9949C130.666 57.7824 130.666 56.9917 131.103 56.5904C131.587 56.1537 132.142 55.7878 132.661 55.3865C132.826 55.2567 133.074 55.1269 133.11 54.9617C133.275 54.3125 133.771 54.0411 134.302 53.7578C135.01 53.3801 135.683 52.9553 136.486 52.613C136.132 53.2503 135.742 53.8758 135.423 54.525C135.258 54.8672 135.223 55.2685 135.128 55.6462C134.999 56.1891 135.01 56.8146 134.727 57.2631C132.897 60.2255 131.811 63.4948 130.631 66.7522C129.474 69.9035 128.825 73.1255 128.553 76.442C128.529 76.678 128.529 76.9377 128.423 77.1265C127.88 78.0825 127.762 79.1447 127.668 80.1833C127.597 80.9859 127.821 81.8121 127.927 82.6146C127.975 82.9687 128.128 83.3228 128.081 83.6532C127.798 85.6478 128.057 87.607 128.27 89.578C128.282 89.7078 128.234 89.8377 128.199 89.9675C127.939 90.9353 127.68 91.8913 127.42 92.8591C127.408 92.8945 127.384 92.9417 127.408 92.9771C127.762 93.7797 127.089 94.24 126.806 94.8419C126.228 96.0811 125.696 97.3322 125.13 98.6186C125.307 98.7131 125.448 98.7839 125.59 98.8547C125.602 98.9137 125.625 98.9609 125.625 98.9845C125.236 100.011 125.696 100.837 126.239 101.664C126.346 101.829 126.44 102.089 126.405 102.277C126.157 103.41 125.803 104.449 124.929 105.334C123.737 106.55 122.485 107.671 121.01 108.533C120.526 108.816 120.16 109.3 119.688 109.595C119.475 109.736 119.086 109.748 118.838 109.654C117.586 109.194 116.453 110.197 116.241 111.129C116.04 112.062 115.969 113.029 115.875 113.985C115.851 114.221 115.981 114.469 116.016 114.611C115.296 115.461 114.588 116.299 113.891 117.137C113.939 117.184 113.986 117.243 114.045 117.29C114.871 116.782 115.544 115.968 116.807 115.98C115.603 116.582 115.249 117.656 114.777 118.659C115.757 117.644 116.949 117.03 118.236 116.688C117.716 117.609 117.185 118.553 116.654 119.485C116.701 119.521 116.748 119.556 116.795 119.591C118 118.376 119.121 117.019 121.128 117.113C120.892 117.786 120.679 118.411 120.455 119.037C121.742 117.349 123.512 116.653 125.566 116.251C125.413 116.735 125.283 117.137 125.165 117.538C126.263 116.31 127.55 115.472 129.214 115.107C129.131 115.579 129.061 115.992 128.966 116.511C130.501 114.21 132.484 113.395 135.246 114.269C134.727 113.726 134.314 113.289 133.83 112.781C134.703 112.357 135.612 112.215 136.616 112.829C136.085 111.955 135.978 111.873 134.479 111.294C134.562 110.751 134.633 110.185 134.727 109.63C134.857 108.91 134.609 108.332 134.078 107.836C133.936 107.695 133.889 107.447 133.842 107.234C133.783 106.987 133.83 106.703 133.712 106.503C133.57 106.243 133.169 106.054 133.145 105.818C133.074 104.756 132.968 103.635 133.771 102.761C134.031 102.478 134.467 102.372 134.798 102.136C135.058 101.959 135.246 101.64 135.518 101.522C136.238 101.203 136.179 100.365 136.639 99.9051C137.171 99.3622 137.489 98.7131 137.525 97.9695C137.548 97.2614 137.69 96.4706 136.97 95.9513C136.923 95.9159 136.864 95.8097 136.875 95.7506C137.017 95.0897 136.781 94.3108 137.513 93.8387C137.773 93.6734 137.973 93.4138 138.162 93.1541C138.493 92.682 138.835 92.1273 138.564 91.5726C137.808 90.0265 137.843 88.327 137.548 86.6982C137.466 86.2261 137.478 85.8367 137.82 85.459C137.938 85.3292 137.962 85.0695 137.973 84.8571C138.032 84.1017 138.162 83.3582 138.811 82.8625C139.827 82.0835 140.134 80.9505 140.37 79.7938C140.83 77.5278 141.208 75.2381 141.68 72.9721C141.975 71.5676 142.66 70.352 143.77 69.4078C144.36 69.9507 144.938 70.47 145.505 71.0011C145.576 71.0719 145.658 71.1899 145.729 71.1781C146.39 71.1309 146.426 71.6738 146.603 72.0751C146.945 72.8423 147.335 73.5976 147.618 74.3884C147.842 75.0139 147.878 75.7102 148.126 76.3121C148.763 77.8465 149.471 79.3572 150.18 80.8561C150.959 82.4966 151.726 84.1489 152.576 85.754C153.768 87.9847 155.043 90.1681 156.259 92.3752C156.436 92.6938 156.613 93.1069 156.566 93.4492C156.401 94.6058 156.637 95.5736 157.51 96.388C157.947 96.8011 158.242 97.1669 157.747 97.8751C157.428 98.3236 157.617 99.1261 157.569 99.7635C157.569 99.8225 157.569 99.8815 157.593 99.9405C157.912 100.578 157.251 101.262 157.747 101.911C158.148 102.431 158.49 103.009 158.809 103.587C159.293 104.449 160.155 104.709 160.957 105.098C161.17 105.193 161.43 105.358 161.5 105.547C161.843 106.562 162.197 107.588 162.421 108.639C162.539 109.17 162.386 109.748 162.339 110.303C162.268 111.023 162.173 111.743 162.091 112.463C162.067 112.64 162.103 112.864 162.008 112.97C161.477 113.56 161.489 114.304 161.418 115.024C161.264 116.7 161.135 118.388 161.005 120.075C160.969 120.5 161.005 120.925 161.005 121.433C161.123 121.291 161.194 121.197 161.312 121.043C161.182 122.07 161.052 123.038 160.922 124.006C160.981 124.017 161.028 124.041 161.087 124.053C161.441 123.356 161.784 122.66 162.114 121.987C162.232 121.999 162.256 121.999 162.268 122.011C163.094 122.271 163.224 122.802 163.071 123.628C162.929 124.407 163.035 125.233 163.035 126.213C163.507 125.056 163.909 124.041 164.298 123.097C164.463 123.061 164.499 123.038 164.534 123.05C165.727 123.309 165.715 123.309 165.856 124.56C165.915 125.127 166.022 125.681 166.116 126.248C166.128 126.319 166.175 126.39 166.258 126.602C166.447 125.658 166.636 124.843 166.754 124.029C166.824 123.51 167.084 123.309 167.58 123.262C168.583 123.156 168.595 123.132 168.914 124.088C169.126 124.725 169.315 125.363 169.516 126C169.528 126.024 169.575 126.036 169.658 126.095C169.658 125.221 169.693 124.395 169.646 123.569C169.634 123.038 169.728 122.648 170.319 122.4ZM155.35 50.1817C155.527 50.2053 155.633 50.2407 155.716 50.2289C156.401 50.1463 157.144 50.2407 157.499 49.3673C157.9 48.3877 158.443 47.4672 158.88 46.5112C158.986 46.2751 158.951 45.9683 158.962 45.744C159.635 44.5166 160.32 43.2773 160.969 42.0971C161.264 42.3213 161.5 42.522 161.76 42.699C161.914 42.8052 162.138 42.8406 162.232 42.9823C162.752 43.7612 163.259 44.5638 163.732 45.3663C164.027 45.8738 164.452 46.3813 164.511 46.9242C164.652 48.1399 164.605 49.3791 164.617 50.5948C164.629 52.0229 164.617 53.451 164.617 54.9145C164.109 54.9381 164.003 55.3629 164.062 55.894C164.098 56.3071 164.157 56.7202 164.157 57.1215C164.157 57.9713 164.133 58.821 164.109 59.5056C161.571 60.615 159.671 62.0195 159.482 64.9465C158.915 64.1321 158.396 63.4476 157.959 62.704C157.628 62.1375 157.322 61.5238 157.156 60.8983C156.708 59.1633 156.33 57.4166 155.952 55.7642C155.988 55.54 156.058 55.3747 156.035 55.2331C155.905 54.6194 155.751 54.0175 155.61 53.4037C155.468 52.8136 155.905 52.0583 155.126 51.6334C155.102 51.6216 155.114 51.5626 155.114 51.5154C155.22 51.0905 155.279 50.642 155.35 50.1817Z" fill="#97A4B5"/>
</g>
<path opacity="0.3" d="M13 23H66.8501V29.1897H13V23Z" fill="#97A4B5"/>
<path opacity="0.3" d="M13 32.2844H99.0363V41.5689H13V32.2844Z" fill="#97A4B5"/>
<path d="M13 49.6152C13 47.2223 14.9254 45.2825 17.3005 45.2825H33.4582C35.8333 45.2825 37.7587 47.2223 37.7587 49.6152C37.7587 52.0082 35.8333 53.948 33.4582 53.948H17.3005C14.9254 53.948 13 52.0082 13 49.6152Z" fill="#282B33"/>
<path d="M13 71.7485C13 70.184 14.1665 68.9158 15.6055 68.9158H25.3945C26.8335 68.9158 28 70.184 28 71.7485C28 73.313 26.8335 74.5813 25.3945 74.5813H15.6055C14.1665 74.5813 13 73.313 13 71.7485Z" fill="#282B33"/>
<path d="M31 71.7485C31 70.184 32.1665 68.9158 33.6055 68.9158H43.3945C44.8335 68.9158 46 70.184 46 71.7485C46 73.313 44.8335 74.5813 43.3945 74.5813H33.6055C32.1665 74.5813 31 73.313 31 71.7485Z" fill="#282B33"/>
<path d="M13 59.3095C13 59.1386 13.157 59 13.3507 59H23.1717C23.3654 59 23.5224 59.1386 23.5224 59.3095C23.5224 59.4804 23.3654 59.619 23.1717 59.619H13.3507C13.157 59.619 13 59.4804 13 59.3095Z" fill="white"/>
<path opacity="0.3" d="M25.3793 59.3095C25.3793 59.1386 25.5455 59 25.7507 59H30.5786C30.7837 59 30.95 59.1386 30.95 59.3095C30.95 59.4804 30.7837 59.619 30.5786 59.619H25.7507C25.5455 59.619 25.3793 59.4804 25.3793 59.3095Z" fill="white"/>
<path opacity="0.3" d="M32.8069 59.3095C32.8069 59.1386 32.9547 59 33.137 59H37.4285C37.6108 59 37.7586 59.1386 37.7586 59.3095C37.7586 59.4804 37.6108 59.619 37.4285 59.619H33.137C32.9547 59.619 32.8069 59.4804 32.8069 59.3095Z" fill="white"/>
<path opacity="0.3" d="M39.6156 59.3095C39.6156 59.1386 39.7819 59 39.987 59H44.8149C45.02 59 45.1863 59.1386 45.1863 59.3095C45.1863 59.4804 45.02 59.619 44.8149 59.619H39.987C39.7819 59.619 39.6156 59.4804 39.6156 59.3095Z" fill="white"/>
<g filter="url(#filter0_b_1939_2976)">
<path d="M175.169 68.2458C175.169 67.5578 175.755 67 176.476 67H198.002C198.724 67 199.309 67.5578 199.309 68.2458V72.5628C199.309 73.2509 198.724 73.8086 198.002 73.8086H176.476C175.755 73.8086 175.169 73.2509 175.169 72.5628V68.2458Z" fill="#9B99AD" fill-opacity="0.15"/>
</g>
<path d="M195.685 70.683L196.186 70.2384C196.25 70.182 196.197 70.0947 196.097 70.0947L195.094 70.0947C194.995 70.0947 194.94 70.1811 195.004 70.2384L195.505 70.683C195.552 70.7238 195.638 70.7238 195.685 70.683Z" fill="white"/>
<path d="M13 80.7952C13 79.3295 14.1882 78.1414 15.6538 78.1414H44.3893C45.855 78.1414 47.0432 79.3295 47.0432 80.7952V109.531C47.0432 110.996 45.855 112.185 44.3893 112.185H15.6539C14.1882 112.185 13 110.996 13 109.531V80.7952Z" fill="#2632A5"/>
<path d="M51.3759 80.7952C51.3759 79.3295 52.5424 78.1414 53.9815 78.1414H82.1945C83.6335 78.1414 84.8001 79.3295 84.8001 80.7952V109.531C84.8001 110.996 83.6335 112.185 82.1945 112.185H53.9815C52.5424 112.185 51.3759 110.996 51.3759 109.531V80.7952Z" fill="#2632A5"/>
<path d="M89.1328 80.7952C89.1328 79.3295 90.321 78.1414 91.7867 78.1414H120.522C121.988 78.1414 123.176 79.3295 123.176 80.7952V109.531C123.176 110.996 121.988 112.185 120.522 112.185H91.7867C90.321 112.185 89.1328 110.996 89.1328 109.531V80.7952Z" fill="#2632A5"/>
<path d="M127.509 80.7952C127.509 79.3295 128.675 78.1414 130.114 78.1414H158.327C159.766 78.1414 160.933 79.3295 160.933 80.7952V109.531C160.933 110.996 159.766 112.185 158.327 112.185H130.114C128.675 112.185 127.509 110.996 127.509 109.531V80.7952Z" fill="#2632A5"/>
<path d="M165.266 80.7952C165.266 79.3295 166.454 78.1414 167.92 78.1414H196.655C198.121 78.1414 199.309 79.3295 199.309 80.7952V109.531C199.309 110.996 198.121 112.185 196.655 112.185H167.92C166.454 112.185 165.266 110.996 165.266 109.531V80.7952Z" fill="#2632A5"/>
<g filter="url(#filter1_b_1939_2976)">
<path d="M123.176 68.2458C123.176 67.5578 123.776 67 124.516 67H146.594C147.335 67 147.935 67.5578 147.935 68.2458V72.5628C147.935 73.2509 147.335 73.8086 146.594 73.8086H124.516C123.776 73.8086 123.176 73.2509 123.176 72.5628V68.2458Z" fill="#9B99AD" fill-opacity="0.15"/>
</g>
<path d="M143.692 70.683L144.193 70.2384C144.257 70.182 144.204 70.0947 144.103 70.0947L143.1 70.0947C143.001 70.0947 142.947 70.1811 143.01 70.2384L143.512 70.683C143.559 70.7238 143.645 70.7238 143.692 70.683Z" fill="white"/>
<g filter="url(#filter2_b_1939_2976)">
<path d="M149.173 68.2458C149.173 67.5578 149.758 67 150.479 67H172.005C172.727 67 173.312 67.5578 173.312 68.2458V72.5628C173.312 73.2509 172.727 73.8086 172.005 73.8086H150.479C149.758 73.8086 149.173 73.2509 149.173 72.5628V68.2458Z" fill="#9B99AD" fill-opacity="0.15"/>
</g>
<path d="M169.688 70.683L170.19 70.2384C170.254 70.182 170.2 70.0947 170.1 70.0947L169.097 70.0947C168.998 70.0947 168.943 70.1811 169.007 70.2384L169.509 70.683C169.555 70.7238 169.641 70.7238 169.688 70.683Z" fill="white"/>
<path d="M15.6909 7.39837C15.2932 7.39837 15.0016 7.68161 15.0016 8.06714C15.0016 8.45266 15.2932 8.7359 15.6909 8.7359C16.0886 8.7359 16.3802 8.45266 16.3802 8.06714C16.3749 7.68424 16.0859 7.39837 15.6909 7.39837ZM15.6777 8.47889C15.4391 8.47889 15.2826 8.31104 15.2826 8.06714C15.2826 7.82324 15.4391 7.65539 15.6777 7.65539C15.9216 7.65539 16.0727 7.81799 16.0727 8.06714C16.0727 8.31366 15.9189 8.47889 15.6777 8.47889ZM14.1453 8.03829C14.2858 7.98059 14.4131 7.84159 14.4131 7.64228C14.4131 7.35903 14.1904 7.16758 13.8616 7.16758H13V8.96407H13.8802C14.2275 8.96407 14.4449 8.76737 14.4449 8.47102C14.4396 8.27957 14.3123 8.10385 14.1453 8.03829ZM13.2784 7.40886H13.8192C14.0048 7.40886 14.1188 7.51114 14.1188 7.6685C14.1188 7.82586 14.0021 7.92289 13.8192 7.92289H13.2784V7.40886ZM13.8272 8.72541H13.2784V8.17204H13.8298C14.0286 8.17204 14.1559 8.27957 14.1559 8.45004C14.1533 8.62051 14.026 8.72541 13.8272 8.72541ZM16.99 7.27249C16.99 7.20692 17.043 7.15447 17.1066 7.15447H18.4428C18.5064 7.15447 18.5595 7.20692 18.5595 7.26987C18.5595 7.33543 18.5064 7.38788 18.4428 7.38788H17.1066C17.043 7.39051 16.99 7.33805 16.99 7.27249ZM18.5621 8.88015C18.5621 8.94571 18.5091 8.99816 18.4455 8.99816H17.1093C17.0457 9.00079 16.9926 8.94833 16.9926 8.88277C16.9926 8.8172 17.0457 8.76475 17.1093 8.76475H18.4455C18.5091 8.76475 18.5595 8.8172 18.5621 8.88015ZM31.4149 7.17021H31.6959V8.96669H31.4149V7.17021ZM22.5468 8.46053C22.5468 8.72017 22.3559 8.99816 21.8283 8.99816C21.4439 8.99816 21.2159 8.84081 21.094 8.70968L21.0807 8.69394L21.2504 8.49462L21.269 8.51298C21.3564 8.60477 21.5447 8.75688 21.839 8.75688C22.1438 8.75688 22.2578 8.61526 22.2578 8.47889C22.2578 8.28744 22.0404 8.23498 21.7859 8.17204C21.4837 8.09336 21.1417 8.00682 21.1417 7.65014C21.1417 7.35379 21.4227 7.14136 21.8124 7.14136C22.0935 7.14136 22.3215 7.22266 22.4938 7.39575L22.507 7.41149L22.3374 7.60818L22.3188 7.58982C22.1916 7.45607 22.0007 7.38526 21.7912 7.38526C21.5765 7.38526 21.4254 7.48754 21.4254 7.63965C21.4254 7.79176 21.6242 7.84422 21.8575 7.90191C22.1677 7.97535 22.5468 8.06714 22.5468 8.46053ZM29.8428 7.14136C29.2887 7.14136 28.8831 7.53213 28.8831 8.06976C28.8831 8.60739 29.286 8.99816 29.8428 8.99816C30.3969 8.99816 30.8025 8.60739 30.8025 8.06976C30.8025 7.53213 30.3969 7.14136 29.8428 7.14136ZM29.8428 8.75426C29.4451 8.75426 29.1773 8.47626 29.1773 8.06452C29.1773 7.65277 29.4451 7.37477 29.8428 7.37477C30.2405 7.37477 30.5082 7.65277 30.5082 8.06452C30.5082 8.4684 30.2378 8.75426 29.8428 8.75426ZM33.056 7.17021H32.3905V8.96669H33.056C33.6339 8.96669 34.0449 8.59953 34.0449 8.07238C34.0422 7.53999 33.6392 7.17021 33.056 7.17021ZM33.056 8.72541H32.6716V7.40886H33.056C33.4802 7.40886 33.7506 7.6685 33.7506 8.06976C33.7532 8.46053 33.4749 8.72541 33.056 8.72541ZM28.3422 7.71571C28.3422 7.38788 28.0957 7.16758 27.7298 7.16758H26.9504V8.96407H27.2314V8.26908H27.5681L28.0427 8.96145H28.3793L27.8703 8.24285C28.1195 8.21138 28.3422 8.03829 28.3422 7.71571ZM27.234 8.03042V7.40886H27.7007C27.9101 7.40886 28.0506 7.53737 28.0506 7.71571C28.0506 7.90191 27.9048 8.03042 27.7007 8.03042H27.234ZM23.0108 7.17021H24.4848V7.40886H23.8856V8.96407H23.6046V7.40886H23.0108V7.17021ZM25.0521 7.17021H26.33V7.40886H25.3332V7.92027H26.3114V8.15893H25.3332V8.7123H26.33V8.95096H25.0521V7.17021ZM19.6332 7.14136C19.1215 7.14136 18.7371 7.47443 18.6814 7.94912H18.3103C18.2466 7.94912 18.1936 8.00157 18.191 8.06714C18.191 8.13533 18.244 8.1904 18.3103 8.1904H18.6814C18.7371 8.66509 19.1215 8.99816 19.6332 8.99816C20.1873 8.99816 20.5929 8.60739 20.5929 8.06976C20.5903 7.53475 20.1873 7.14136 19.6332 7.14136ZM19.6332 8.75688C19.2753 8.75688 19.0234 8.53396 18.9757 8.1904H19.2223C19.2885 8.1904 19.3416 8.13795 19.3416 8.06714C19.3416 8.00157 19.2859 7.94912 19.2223 7.94912H18.9757C19.0234 7.60294 19.2753 7.38001 19.6332 7.38001C20.0309 7.38001 20.2986 7.65801 20.2986 8.06976C20.2986 8.47102 20.0282 8.75688 19.6332 8.75688Z" fill="white"/>
<path d="M192.5 7.76022C192.5 8.78576 191.669 9.61712 190.643 9.61712C189.618 9.61712 188.786 8.78576 188.786 7.76022C188.786 6.73468 189.618 5.90332 190.643 5.90332C191.669 5.90332 192.5 6.73468 192.5 7.76022Z" fill="#2632A5"/>
<path fill-rule="evenodd" clip-rule="evenodd" d="M190.643 8.83303C191.236 8.83303 191.716 8.35272 191.716 7.76022C191.716 7.16772 191.236 6.68741 190.643 6.68741C190.051 6.68741 189.571 7.16772 189.571 7.76022C189.571 8.35272 190.051 8.83303 190.643 8.83303ZM190.643 9.61712C191.669 9.61712 192.5 8.78576 192.5 7.76022C192.5 6.73468 191.669 5.90332 190.643 5.90332C189.618 5.90332 188.786 6.73468 188.786 7.76022C188.786 8.78576 189.618 9.61712 190.643 9.61712Z" fill="white"/>
<path d="M181.945 7.62817L181.42 7.16945C181.372 7.12775 181.298 7.13239 181.26 7.17872C180.984 7.48453 180.799 7.86448 180.74 8.27223C180.735 8.32783 180.783 8.3788 180.846 8.3788H181.59C181.643 8.3788 181.685 8.34637 181.696 8.30467C181.738 8.10079 181.829 7.91082 181.961 7.74864C181.988 7.70694 181.982 7.65597 181.945 7.62817Z" fill="white"/>
<path d="M180.74 8.48164C180.793 8.88579 180.974 9.26206 181.261 9.58259C181.298 9.6244 181.378 9.62905 181.42 9.59188L181.946 9.13199C181.983 9.09948 181.989 9.04838 181.957 9.01121C181.819 8.84398 181.728 8.65352 181.691 8.45377C181.681 8.40732 181.638 8.37944 181.585 8.37944H180.841C180.783 8.3748 180.735 8.4259 180.74 8.48164Z" fill="white"/>
<path d="M182.49 6.52217C182.081 6.55139 181.7 6.64437 181.393 6.78249C181.351 6.80109 181.347 6.84093 181.384 6.86218L181.844 7.12516C181.876 7.14376 181.928 7.14641 181.965 7.13047C182.127 7.06407 182.318 7.01891 182.522 6.99766C182.564 6.99235 182.597 6.97109 182.597 6.94453V6.57264C182.597 6.54343 182.546 6.51952 182.49 6.52217Z" fill="white"/>
<path d="M183.811 6.78738C183.819 6.78107 183.827 6.77475 183.835 6.76844C183.671 6.63901 183.481 6.55062 183.277 6.52221C183.245 6.51906 183.216 6.54747 183.216 6.58535V7.0273C183.216 7.05886 183.234 7.08412 183.261 7.09043C183.315 7.0999 183.366 7.11884 183.417 7.14094C183.518 7.04939 183.647 6.93259 183.811 6.78738Z" fill="white"/>
<path d="M183.851 9.12978L184.114 9.5885C184.138 9.6302 184.175 9.62557 184.193 9.57923C184.337 9.26415 184.424 8.88884 184.454 8.48572C184.456 8.43012 184.432 8.37915 184.401 8.37915H184.029C184.002 8.37915 183.981 8.41158 183.976 8.45329C183.957 8.65253 183.912 8.8425 183.843 9.00931C183.83 9.04638 183.833 9.09735 183.851 9.12978Z" fill="white"/>
<path d="M183.948 8.3788H184.39C184.428 8.3788 184.457 8.32011 184.454 8.25608C184.425 7.84521 184.337 7.46636 184.207 7.14087C184.204 7.15688 184.195 7.17288 184.188 7.19423C184.043 7.51972 183.93 7.77584 183.835 7.98394C183.857 8.07999 183.873 8.18671 183.885 8.29343C183.892 8.34145 183.917 8.3788 183.948 8.3788Z" fill="white"/>
<path d="M183.821 7.29362C183.866 7.20684 183.792 7.09639 183.732 7.1595C183.482 7.44353 183.167 7.8025 183.025 7.97213C182.999 7.96424 182.972 7.95635 182.943 7.95635C182.752 7.95635 182.597 8.18909 182.597 8.47706C182.597 8.76503 182.752 8.99777 182.943 8.99777C183.135 8.99777 183.29 8.76503 183.29 8.47706C183.29 8.43367 183.285 8.39422 183.28 8.35477C183.395 8.14175 183.632 7.66838 183.821 7.29362Z" fill="white"/>
<path d="M197.357 8.79152H196.5C196.447 8.79152 196.405 8.7453 196.405 8.68836V6.83146C196.405 6.77451 196.447 6.7283 196.5 6.7283H197.357C197.41 6.7283 197.452 6.68219 197.452 6.62514C197.452 6.56809 197.41 6.52197 197.357 6.52197H196.5C196.343 6.52197 196.214 6.66083 196.214 6.83146V8.68836C196.214 8.85899 196.343 8.99784 196.5 8.99784H197.357C197.41 8.99784 197.452 8.95173 197.452 8.89468C197.452 8.83763 197.41 8.79152 197.357 8.79152Z" fill="white"/>
<path d="M198.661 7.68385L198.176 7.17159C198.138 7.13018 198.075 7.13072 198.036 7.17266C197.998 7.2146 197.998 7.28216 198.037 7.32356L198.349 7.65311H197.551C197.496 7.65311 197.452 7.70081 197.452 7.75983C197.452 7.81884 197.496 7.86655 197.551 7.86655H198.349L198.037 8.1961C197.998 8.23751 197.998 8.30506 198.036 8.347C198.056 8.36813 198.081 8.3788 198.107 8.3788C198.132 8.3788 198.157 8.36856 198.176 8.34807L198.661 7.83581C198.679 7.81575 198.69 7.78842 198.69 7.75982C198.69 7.73123 198.679 7.70402 198.661 7.68385Z" fill="white"/>
<path d="M175.768 7.32049C175.772 7.45323 175.733 7.58374 175.658 7.69283C175.582 7.80191 175.473 7.88383 175.347 7.92655H175.344V8.06127C175.348 8.08929 175.346 8.11783 175.338 8.14497C175.33 8.17212 175.316 8.19723 175.298 8.2186C175.279 8.23997 175.256 8.25711 175.23 8.26886C175.205 8.2806 175.177 8.28668 175.148 8.28668C175.12 8.28668 175.092 8.2806 175.066 8.26886C175.041 8.25711 175.018 8.23997 174.999 8.2186C174.981 8.19723 174.967 8.17212 174.959 8.14497C174.951 8.11783 174.949 8.08929 174.953 8.06127V7.92339C174.954 7.84159 174.98 7.76212 175.028 7.69619C175.077 7.63026 175.145 7.58121 175.223 7.55596C175.269 7.54012 175.309 7.50986 175.337 7.46962C175.365 7.42938 175.379 7.38127 175.377 7.33234C175.374 7.27319 175.348 7.21767 175.305 7.17671C175.262 7.13576 175.205 7.11235 175.146 7.1111C175.103 7.11148 175.062 7.12382 175.025 7.14673C174.989 7.16963 174.961 7.20218 174.942 7.24068C174.933 7.26761 174.919 7.29238 174.9 7.31331C174.881 7.33424 174.858 7.35085 174.832 7.36202C174.806 7.37319 174.778 7.37865 174.75 7.37804C174.721 7.37744 174.694 7.37077 174.668 7.35849C174.643 7.34622 174.62 7.32862 174.602 7.30689C174.584 7.28516 174.571 7.2598 174.563 7.23253C174.556 7.20526 174.554 7.1767 174.559 7.1488C174.564 7.1209 174.574 7.0943 174.59 7.0708C174.64 6.96639 174.718 6.87811 174.816 6.81596C174.914 6.75382 175.027 6.72029 175.143 6.71917H175.147C175.308 6.71958 175.463 6.78245 175.579 6.89457C175.695 7.00669 175.763 7.15935 175.768 7.32049ZM175.148 8.40855C175.1 8.41345 175.054 8.43626 175.022 8.47258C174.989 8.5089 174.971 8.55613 174.971 8.60511C174.971 8.65409 174.989 8.70131 175.022 8.73763C175.054 8.77395 175.1 8.79677 175.148 8.80166C175.201 8.80166 175.251 8.78085 175.288 8.7438C175.325 8.70676 175.346 8.65651 175.346 8.60412C175.345 8.55207 175.324 8.50233 175.287 8.46571C175.25 8.42909 175.2 8.40855 175.148 8.40855ZM177.026 7.76022C177.026 8.12748 176.917 8.48649 176.713 8.79186C176.509 9.09722 176.219 9.33523 175.88 9.47577C175.541 9.61632 175.167 9.65309 174.807 9.58144C174.447 9.50979 174.116 9.33294 173.856 9.07325C173.597 8.81355 173.42 8.48269 173.348 8.12248C173.276 7.76228 173.313 7.38892 173.454 7.04962C173.594 6.71031 173.832 6.4203 174.138 6.21626C174.443 6.01223 174.802 5.90332 175.169 5.90332C175.662 5.90332 176.134 6.09896 176.482 6.44719C176.831 6.79543 177.026 7.26774 177.026 7.76022ZM176.614 7.76022C176.614 7.47454 176.529 7.19527 176.37 6.95774C176.212 6.7202 175.986 6.53507 175.722 6.42574C175.458 6.31641 175.168 6.28781 174.887 6.34354C174.607 6.39928 174.35 6.53685 174.148 6.73885C173.946 6.94086 173.808 7.19823 173.753 7.47843C173.697 7.75862 173.725 8.04904 173.835 8.31298C173.944 8.57691 174.129 8.8025 174.367 8.96122C174.604 9.11994 174.884 9.20465 175.169 9.20465C175.552 9.20423 175.919 9.05192 176.19 8.78112C176.461 8.51033 176.613 8.14318 176.614 7.76022Z" fill="white"/>
<path d="M167.058 8.69324L166.408 8.18296C166.573 8.00853 166.669 7.79505 166.669 7.56335C166.669 6.99059 166.078 6.52197 165.348 6.52197C164.622 6.52197 164.028 6.98799 164.028 7.56335C164.028 8.13871 164.619 8.60472 165.348 8.60472C165.619 8.60472 165.873 8.53963 166.085 8.42769L166.742 8.94577C166.784 8.97961 166.844 8.99784 166.9 8.99784C166.956 8.99784 167.015 8.97961 167.058 8.94577C167.144 8.87548 167.144 8.76353 167.058 8.69324ZM164.477 7.56335C164.477 7.18325 164.87 6.87344 165.348 6.87344C165.827 6.87344 166.22 7.18325 166.22 7.56074C166.22 7.93824 165.83 8.25065 165.348 8.25065C164.866 8.25065 164.477 7.94084 164.477 7.56335Z" fill="white"/>
</g>
<path d="M0 11.9785C0 10.8739 0.895431 9.97852 2 9.97852H44.6178C45.7224 9.97852 46.6178 10.8739 46.6178 11.9785V30.3761C46.6178 31.4807 45.7224 32.3761 44.6178 32.3761H2C0.895431 32.3761 0 31.4807 0 30.3761L0 11.9785Z" fill="url(#paint1_linear_1939_2976)"/>
<path d="M6.40552 27.2077V14.959H10.8147C12.3941 14.959 13.594 15.2478 14.4146 15.8255C15.2408 16.4031 15.6539 17.2416 15.6539 18.3408C15.6539 18.9746 15.5078 19.5158 15.2155 19.9645C14.9232 20.4131 14.4933 20.744 13.9256 20.9571C14.5663 21.1254 15.0581 21.4395 15.401 21.8994C15.7438 22.3592 15.9152 22.9201 15.9152 23.5819C15.9152 24.7821 15.533 25.685 14.7687 26.2907C14.0099 26.8908 12.883 27.1965 11.388 27.2077H6.40552ZM9.36466 22.0003V24.9363H11.3037C11.8376 24.9363 12.2479 24.8157 12.5346 24.5745C12.8212 24.3278 12.9645 23.9829 12.9645 23.5398C12.9645 22.5191 12.4559 22.0059 11.4386 22.0003H9.36466ZM9.36466 20.0654H10.9075C11.5538 20.0598 12.0147 19.942 12.2901 19.7121C12.5655 19.4821 12.7032 19.1428 12.7032 18.6942C12.7032 18.1782 12.5542 17.808 12.2564 17.5837C11.9585 17.3538 11.4779 17.2388 10.8147 17.2388H9.36466V20.0654Z" fill="white"/>
<path d="M21.8335 27.3759C20.434 27.3759 19.3015 26.9609 18.436 26.1309C17.5704 25.2952 17.1377 24.21 17.1377 22.8752V22.6397C17.1377 21.7087 17.3091 20.887 17.6519 20.1748C18.0004 19.4625 18.5062 18.9129 19.1694 18.5259C19.8326 18.1333 20.6195 17.937 21.53 17.937C22.8115 17.937 23.8231 18.3352 24.565 19.1316C25.3069 19.9224 25.6779 21.0272 25.6779 22.4462V23.5482H20.0294C20.1305 24.0586 20.3525 24.4596 20.6954 24.7512C21.0382 25.0428 21.4822 25.1887 22.0274 25.1887C22.9267 25.1887 23.6292 24.8746 24.1351 24.2465L25.4334 25.7775C25.0793 26.2655 24.5763 26.6553 23.9243 26.9469C23.278 27.2329 22.581 27.3759 21.8335 27.3759ZM21.5131 20.1243C20.6813 20.1243 20.1867 20.6739 20.0294 21.7732H22.8958V21.5544C22.907 21.1002 22.7918 20.7496 22.5501 20.5029C22.3084 20.2505 21.9628 20.1243 21.5131 20.1243Z" fill="white"/>
<path d="M30.1376 15.8423V18.1053H31.6383V20.0738H30.1376V24.238C30.1376 24.5802 30.1995 24.8185 30.3231 24.9531C30.4468 25.0877 30.6913 25.155 31.0566 25.155C31.3376 25.155 31.5737 25.1382 31.7648 25.1045V27.132C31.2533 27.2946 30.7194 27.3759 30.1629 27.3759C29.185 27.3759 28.4628 27.146 27.9963 26.6861C27.5298 26.2262 27.2965 25.528 27.2965 24.5914V20.0738H26.1331V18.1053H27.2965V15.8423H30.1376Z" fill="white"/>
<path d="M37.9022 27.2077C37.8011 27.0226 37.7111 26.7506 37.6325 26.3917C37.1098 27.0478 36.3791 27.3759 35.4405 27.3759C34.5806 27.3759 33.8499 27.1179 33.2485 26.602C32.6472 26.0804 32.3465 25.427 32.3465 24.6418C32.3465 23.6548 32.7118 22.9089 33.4424 22.4041C34.1731 21.8994 35.2353 21.647 36.6292 21.647H37.506V21.1675C37.506 20.3318 37.1435 19.914 36.4184 19.914C35.744 19.914 35.4068 20.2449 35.4068 20.9067H32.5657C32.5657 20.0262 32.9394 19.3111 33.6869 18.7615C34.4401 18.2118 35.3983 17.937 36.5618 17.937C37.7252 17.937 38.6441 18.2203 39.3186 18.7867C39.993 19.3531 40.3387 20.1299 40.3555 21.117V25.1466C40.3668 25.9822 40.496 26.6216 40.7433 27.0647V27.2077H37.9022ZM36.1234 25.3569C36.4775 25.3569 36.7697 25.2812 37.0002 25.1298C37.2362 24.9783 37.4048 24.8073 37.506 24.6166V23.1612H36.6798C35.6906 23.1612 35.196 23.6043 35.196 24.4904C35.196 24.7484 35.2831 24.9587 35.4574 25.1214C35.6316 25.2784 35.8536 25.3569 36.1234 25.3569Z" fill="white"/>
<defs>
<filter id="filter0_b_1939_2976" x="165.169" y="57" width="44.1396" height="26.8086" filterUnits="userSpaceOnUse" color-interpolation-filters="sRGB">
<feFlood flood-opacity="0" result="BackgroundImageFix"/>
<feGaussianBlur in="BackgroundImage" stdDeviation="5"/>
<feComposite in2="SourceAlpha" operator="in" result="effect1_backgroundBlur_1939_2976"/>
<feBlend mode="normal" in="SourceGraphic" in2="effect1_backgroundBlur_1939_2976" result="shape"/>
</filter>
<filter id="filter1_b_1939_2976" x="113.176" y="57" width="44.7587" height="26.8086" filterUnits="userSpaceOnUse" color-interpolation-filters="sRGB">
<feFlood flood-opacity="0" result="BackgroundImageFix"/>
<feGaussianBlur in="BackgroundImage" stdDeviation="5"/>
<feComposite in2="SourceAlpha" operator="in" result="effect1_backgroundBlur_1939_2976"/>
<feBlend mode="normal" in="SourceGraphic" in2="effect1_backgroundBlur_1939_2976" result="shape"/>
</filter>
<filter id="filter2_b_1939_2976" x="139.173" y="57" width="44.1396" height="26.8086" filterUnits="userSpaceOnUse" color-interpolation-filters="sRGB">
<feFlood flood-opacity="0" result="BackgroundImageFix"/>
<feGaussianBlur in="BackgroundImage" stdDeviation="5"/>
<feComposite in2="SourceAlpha" operator="in" result="effect1_backgroundBlur_1939_2976"/>
<feBlend mode="normal" in="SourceGraphic" in2="effect1_backgroundBlur_1939_2976" result="shape"/>
</filter>
<linearGradient id="paint0_linear_1939_2976" x1="129.675" y1="47.0569" x2="129.675" y2="76.822" gradientUnits="userSpaceOnUse">
<stop stop-color="#C4C4C4"/>
<stop offset="1" stop-color="#C4C4C4" stop-opacity="0"/>
</linearGradient>
<linearGradient id="paint1_linear_1939_2976" x1="9.29148e-07" y1="32.4738" x2="46.6178" y2="32.4734" gradientUnits="userSpaceOnUse">
<stop stop-color="#2096D9"/>
<stop offset="1" stop-color="#5C35EE"/>
</linearGradient>
</defs>
</svg>
