<?xml version="1.0" standalone="no"?>
<!DOCTYPE svg PUBLIC "-//W3C//DTD SVG 20010904//EN"
 "http://www.w3.org/TR/2001/REC-SVG-20010904/DTD/svg10.dtd">
<svg version="1.0" xmlns="http://www.w3.org/2000/svg"
 width="32.000000pt" height="32.000000pt" viewBox="0 0 32.000000 32.000000"
 preserveAspectRatio="xMidYMid meet">

<g transform="translate(0.000000,32.000000) scale(0.100000,-0.100000)"
fill="#000000" stroke="none">
<path d="M79 277 c-38 -26 -48 -51 -24 -61 11 -4 29 4 47 19 33 28 73 32 105
10 18 -13 22 -12 38 5 16 18 15 19 -14 34 -45 24 -111 20 -152 -7z"/>
<path d="M228 173 c69 -4 72 -9 47 -71 -15 -34 -15 -36 0 -21 9 9 19 35 22 58
l6 41 -69 -2 -69 -2 63 -3z"/>
</g>
</svg>
